<svg width="17" height="16" viewBox="0 0 17 16" fill="none" xmlns="http://www.w3.org/2000/svg">
<path d="M2.5 7.99996C2.5 5.4858 2.5 4.22872 3.28105 3.44767C4.0621 2.66663 5.31918 2.66663 7.83333 2.66663H9.5C11.6917 2.66663 12.7875 2.66663 13.525 3.27193C13.6601 3.38274 13.7839 3.50655 13.8947 3.64158C14.5 4.37914 14.5 5.47497 14.5 7.66663V7.66663C14.5 9.85828 14.5 10.9541 13.8947 11.6917C13.7839 11.8267 13.6601 11.9505 13.525 12.0613C12.7875 12.6666 11.6917 12.6666 9.5 12.6666H6.70149C6.27842 12.6666 6.06688 12.6666 5.86491 12.6978C5.44167 12.763 5.04037 12.9292 4.69495 13.1824C4.53012 13.3032 4.38054 13.4528 4.08138 13.7519V13.7519C3.71244 14.1209 3.52797 14.3053 3.38049 14.3553C3.06397 14.4624 2.717 14.3187 2.56897 14.0191C2.5 13.8795 2.5 13.6186 2.5 13.0969V7.99996Z" stroke="black" stroke-width="1.5" stroke-linejoin="round"/>
<circle cx="5.5" cy="7.66663" r="0.75" fill="black" stroke="black" stroke-width="0.5"/>
<circle cx="8.5" cy="7.66663" r="0.75" fill="black" stroke="black" stroke-width="0.5"/>
<circle cx="11.5" cy="7.66663" r="0.75" fill="black" stroke="black" stroke-width="0.5"/>
</svg>
